HIERARCHY
ROOT Hips
{
	OFFSET 0.000000 0.000000 0.000000 
	CHANNELS 6 Xposition Yposition Zposition Yrotation Zrotation Xrotation 
	JOINT Lumbar
	{
		OFFSET 0.000000 0.000000 0.000000 
		CHANNELS 3 Zrotation Xrotation Yrotation
		JOINT Neck
		{
			OFFSET 0.000000 0.445665 0.000000 
			CHANNELS 3 Zrotation Xrotation Yrotation
			End Site
			{
				OFFSET 0.000000 0.227535 0.000000 
			}
		}
		JOINT RightShoulder
		{
			OFFSET 0.019635 0.377685 0.194865 
			CHANNELS 3 Zrotation Xrotation Yrotation
			JOINT RightElbow
			{
				OFFSET 0.000000 -0.243375 0.000000 
				CHANNELS 2 Zrotation Yrotation
				JOINT RightWrist
				{
					OFFSET 0.000000 -0.264825 0.000000 
					CHANNELS 2 Zrotation Xrotation
					End Site
					{
						OFFSET 0.006600 -0.176220 0.000990 
					}
				}
			}
		}
		JOINT LeftShoulder
		{
			OFFSET 0.019635 0.377685 -0.194865 
			CHANNELS 3 Zrotation Xrotation Yrotation
			JOINT LeftElbow
			{
				OFFSET 0.000000 -0.243375 0.000000 
				CHANNELS 2 Zrotation Yrotation
				JOINT LeftWrist
				{
					OFFSET 0.000000 -0.264825 0.000000 
					CHANNELS 2 Zrotation Xrotation
					End Site
					{
						OFFSET 0.006600 -0.176220 -0.000990 
					}
				}
			}
		}
	}
	JOINT RightHip
	{
		OFFSET 0.052140 -0.069960 0.075570 
		CHANNELS 3 Zrotation Xrotation Yrotation
		JOINT RightKnee
		{
			OFFSET 0.000000 -0.402270 0.000000 
			CHANNELS 1 Zrotation
			JOINT RightAnkle
			{
				OFFSET 0.000000 -0.404085 0.000000 
				CHANNELS 3 Zrotation Xrotation Yrotation
				End Site
				{
					OFFSET 0.204105 -0.089430 0.008415 
				}
			}
		}
	}
	JOINT LeftHip
	{
		OFFSET 0.052140 -0.069960 -0.075570 
		CHANNELS 3 Zrotation Xrotation Yrotation
		JOINT LeftKnee
		{
			OFFSET 0.000000 -0.402270 0.000000 
			CHANNELS 1 Zrotation
			JOINT LeftAnkle
			{
				OFFSET 0.000000 -0.404085 0.000000 
				CHANNELS 3 Zrotation Xrotation Yrotation
				End Site
				{
					OFFSET 0.204105 -0.089430 -0.008415 
				}
			}
		}
	}
}
MOTION
Frames: 16
Frame Time: 0.02
1.05369 -0.29531 -0.28891 364.13544 -9.78259 10.06709 37.492 15.66803 -0.01488 -19.30781 8.4123 -2.11994 53.51276 -6.84635 21.27518 96.56662 112.34899 -28.29382 -8.15516 100.57267 10.86352 -51.61421 59.48505 -31.24028 42.27955 10.00439 -1.23677 -23.7837 20.03558 -96.1987 -5.83184 -1.91831 -3.13392 91.88099 8.73811 12.41441 -141.62721 -5.8486 3.23384 3.76155
1.05153 -0.29599 -0.28527 364.30058 -9.87742 10.11371 36.64049 15.44388 0.11897 -19.24705 7.54921 -2.11994 54.44273 -6.88804 21.61956 96.38029 111.98077 -27.87812 -8.13714 99.10219 11.7244 -49.8698 61.52645 -34.14467 39.52045 9.66792 -0.64894 -23.64258 19.89446 -96.99425 -5.83706 -1.87517 -3.115 92.48915 8.84595 11.69203 -141.51601 -5.8188 3.21352 3.75007
1.04844 -0.29712 -0.28111 364.51977 -10.00957 10.14549 35.64343 15.14984 0.27462 -19.18063 6.51479 -2.11994 55.63873 -6.92304 22.04907 96.05977 111.61068 -27.41122 -8.12361 97.259 12.68571 -47.63568 63.98626 -38.2293 35.99322 9.19145 0.13495 -23.47795 19.76583 -98.02672 -5.84399 -1.8168 -3.08927 93.35957 8.96175 10.87148 -141.38512 -5.78474 3.19151 3.73771
1.04567 -0.29805 -0.27715 364.72089 -10.13506 10.18388 34.70449 14.87832 0.40212 -19.11704 5.55115 -2.11994 56.74718 -6.9615 22.45723 95.77107 111.25541 -26.97832 -8.11041 95.6244 13.62929 -45.6839 66.23216 -41.97183 32.64977 8.79914 0.84879 -23.3221 19.63457 -98.95887 -5.85011 -1.76554 -3.06661 94.13758 9.07826 10.09906 -141.25238 -5.75253 3.16965 3.72546
1.04332 -0.29896 -0.27331 364.89641 -10.21576 10.22273 33.79406 14.64437 0.60722 -19.0513 4.6135 -2.11994 57.71921 -6.99685 22.79157 95.60642 110.87994 -26.52647 -8.09343 93.81873 14.46219 -43.46919 68.58682 -44.96183 29.95029 8.31889 1.48268 -23.17307 19.48811 -99.86207 -5.85618 -1.71368 -3.0441 94.80537 9.17779 9.30907 -141.16335 -5.72025 3.1503 3.71437
1.03988 -0.30002 -0.26911 365.13843 -10.3971 10.25649 32.79148 14.31669 0.65465 -18.98912 3.58293 -2.11994 59.03608 -7.0384 23.30036 95.15146 110.5324 -26.09216 -8.08331 92.28148 15.54017 -41.68463 70.8078 -49.73764 25.77961 7.98715 2.32621 -23.00443 19.37484 -100.87992 -5.8629 -1.65935 -3.01964 95.76114 9.31388 8.53345 -140.97962 -5.68735 3.12521 3.7006
1.03353 -0.30139 -0.26411 365.53785 -10.87314 10.28795 31.57469 13.74033 0.27436 -18.938 2.33347 -2.11994 61.249 -7.08901 24.26698 93.92484 110.25494 -25.72016 -8.08775 91.59588 17.35136 -41.27408 72.59769 -59.60321 17.33815 8.12337 3.74191 -22.7908 19.37946 -102.16975 -5.8702 -1.60222 -2.99136 97.48324 9.55139 7.82121 -140.53537 -5.65296 3.08661 3.68052
1.02614 -0.3029 -0.25877 366.00415 -11.44549 10.3136 30.27128 13.07343 -0.26704 -18.8909 0.99827 -2.11994 63.79675 -7.14806 25.40669 92.41176 110.00647 -25.36749 -8.09906 91.19106 19.39072 -41.30437 74.2304 -71.1395 7.51749 8.41024 5.35509 -22.55783 19.41254 -103.56391 -5.87825 -1.54309 -2.96137 99.47983 9.82476 7.12746 -139.99745 -5.61833 3.04201 3.65762
1.01927 -0.30435 -0.25356 366.44818 -11.95642 10.33643 29.00385 12.45271 -0.74393 -18.84211 -0.29511 -2.11994 66.18592 -7.20948 26.46938 91.03065 109.73738 -24.9962 -8.10784 90.64568 21.27243 -41.09023 75.90789 -81.61184 -1.40743 8.61278 6.85067 -22.33163 19.41381 -104.90172 -5.88654 -1.48456 -2.93215 101.32731 10.08003 6.42562 -139.50511 -5.58435 2.99893 3.63542
1.01213 -0.30582 -0.24841 366.86063 -12.54044 10.38094 27.74079 11.80846 -1.186 -18.79228 -1.60892 -2.11994 68.61501 -7.24395 27.5287 89.63445 109.4793 -24.64878 -8.11252 90.1405 23.3851 -41.04026 77.71256 -93.40589 -11.48849 8.8762 8.46864 -22.11302 19.49415 -106.28656 -5.89255 -1.42658 -2.90262 103.2857 10.34339 5.71819 -138.99922 -5.54779 2.96076 3.61561
1.00535 -0.30726 -0.24307 367.35307 -12.99798 10.38016 26.45589 11.19243 -1.73577 -18.74599 -2.89536 -2.11994 71.03261 -7.3373 28.63428 88.207 109.23152 -24.27731 -8.12965 89.62488 25.07004 -40.7652 79.20958 -102.83617 -19.48704 9.05189 9.87854 -21.87444 19.41764 -107.59386 -5.90333 -1.36744 -2.87353 105.07623 10.59806 5.02907 -138.49971 -5.51678 2.91108 3.59022
0.99973 -0.30863 -0.23728 368.05753 -13.05246 10.24648 25.08122 10.67864 -2.57286 -18.70544 -4.10929 -2.11994 73.37218 -7.58501 29.83101 86.73318 108.76861 -23.65287 -8.15813 88.99943 25.51381 -39.7151 79.89197 -105.25835 -21.32485 8.93719 10.6413 -21.58445 18.88985 -108.67051 -5.92806 -1.30346 -2.84522 106.321 10.822 4.37796 -138.0398 -5.4997 2.83019 3.54954
0.99455 -0.30996 -0.23131 368.83828 -12.98082 10.06897 23.69708 10.19643 -3.50773 -18.66874 -5.2873 -2.11994 75.68019 -7.89244 31.06644 85.24428 108.35327 -23.03375 -8.20221 88.35825 25.51984 -38.43451 80.26831 -105.25437 -21.03089 8.73222 11.1901 -21.2753 18.20477 -109.66217 -5.95738 -1.23885 -2.81761 107.38744 11.03547 3.74648 -137.5899 -5.4885 2.73811 3.50345
0.98925 -0.31128 -0.22544 369.57918 -12.98783 9.91804 22.35215 9.69859 -4.37825 -18.63254 -6.46518 -2.11994 77.97849 -8.1771 32.28043 83.78251 108.07852 -22.53667 -8.25396 87.7339 25.72816 -37.29166 80.78543 -106.39872 -21.75417 8.57623 11.85346 -20.97573 17.59966 -110.68625 -5.98396 -1.17597 -2.79027 108.5459 11.25244 3.11201 -137.13601 -5.47562 2.65171 3.46021
0.98357 -0.31271 -0.2195 370.34522 -12.91221 9.7399 20.85958 9.20255 -5.33704 -18.58771 -7.71586 -2.11994 80.392 -8.44528 33.51837 82.2243 107.14395 -21.53104 -8.24633 87.0771 25.9291 -36.02378 81.29175 -107.39703 -22.31345 8.39024 12.4561 -20.6719 16.96184 -111.74231 -6.0133 -1.10685 -2.76037 109.67358 11.47625 2.45376 -136.67611 -5.45859 2.5625 3.4152
0.9788 -0.3139 -0.21367 371.07501 -12.97239 9.60669 19.66985 8.71193 -6.13484 -18.56083 -8.80492 -2.11994 82.55139 -8.75976 34.71138 80.86808 107.56452 -21.5653 -8.36264 86.48198 26.04005 -34.95693 81.7479 -108.11647 -22.70017 8.24531 13.12501 -20.37252 16.35175 -112.70771 -6.03797 -1.05069 -2.73601 110.8121 11.68251 1.84862 -136.23277 -5.45156 2.47666 3.37267
